<svg xmlns="http://www.w3.org/2000/svg" width="1200" height="630" viewBox="0 0 1200 630"><title>Kevin</title><rect width="1200" height="630" fill="#FFE500"/><g transform="translate(754,74) scale(1)"><path d="M246.03,390.88L247.23,452.33" fill="none" stroke="#0B0B0B" stroke-width="26" stroke-linejoin="round" stroke-linecap="round"/><path d="M246.03,390.88L247.23,452.33" fill="none" stroke="#E8232B" stroke-width="14" stroke-linejoin="round" stroke-linecap="round"/><path d="M289.24,390.55L292.44,452.52" fill="none" stroke="#0B0B0B" stroke-width="26" stroke-linejoin="round" stroke-linecap="round"/><path d="M289.24,390.55L292.44,452.52" fill="none" stroke="#E8232B" stroke-width="14" stroke-linejoin="round" stroke-linecap="round"/><path d="M267.5,459.34C267.25,461.92 266.44,464.93 263.25,467.53C260.07,470.12 254.21,474.15 248.38,474.92C242.55,475.69 234,472.73 228.28,472.14C222.57,471.54 217,473.17 214.09,471.38C211.18,469.59 210.59,464.96 210.83,461.41C211.06,457.85 212.49,452.23 215.5,450.05C218.5,447.86 223.86,448.83 228.85,448.28C233.84,447.73 239.47,446.12 245.45,446.75C251.42,447.38 261.04,449.95 264.72,452.05C268.39,454.15 267.74,456.76 267.5,459.34Z" fill="#E8232B" stroke="#0B0B0B" stroke-width="12" stroke-linejoin="round" stroke-linecap="round"/><path d="M319.64,459.4C319.38,462.32 320.65,467.59 317.45,470.29C314.24,472.98 305.98,474.76 300.41,475.58C294.84,476.4 288.88,476.48 284.03,475.21C279.17,473.93 274.87,470.54 271.29,467.93C267.71,465.32 262.59,462.01 262.55,459.55C262.52,457.08 267.75,455.52 271.06,453.14C274.38,450.75 276.93,446.92 282.44,445.25C287.94,443.57 298.01,441.83 304.11,443.09C310.22,444.35 316.46,450.06 319.05,452.78C321.64,455.5 319.91,456.49 319.64,459.4Z" fill="#E8232B" stroke="#0B0B0B" stroke-width="12" stroke-linejoin="round" stroke-linecap="round"/>
<path d="M251.38,302.69C263.09,299.07 287,297.05 298,302.39C308.99,307.74 315.57,322.59 317.33,334.77C319.1,346.94 311.74,365.7 308.6,375.45C305.46,385.21 306.51,388.91 298.5,393.31C290.49,397.71 271.55,402.83 260.56,401.84C249.58,400.85 238.72,395.62 232.58,387.37C226.45,379.13 224.57,362.93 223.75,352.38C222.94,341.83 223.11,332.36 227.71,324.08C232.32,315.8 239.66,306.3 251.38,302.69Z" fill="#E8232B" stroke="#0B0B0B" stroke-width="12" stroke-linejoin="round" stroke-linecap="round"/>
<path d="M308.11,316.05L364.81,300.25L342.11,331.95L384.49,335.66L341.35,357.26L371.99,384.98L321.05,368.74L303.44,346.28Z" fill="#E8232B" stroke="#0B0B0B" stroke-width="12" stroke-linejoin="round" stroke-linecap="round"/>
<path d="M404.32,191.39C405.42,209.57 397.57,230.19 390.43,248.51C383.3,266.82 374.97,287.64 361.5,301.26C348.03,314.87 328.28,322.4 309.63,330.22C290.99,338.03 269.34,348.37 249.63,348.16C229.93,347.95 207.8,337.4 191.39,328.93C174.99,320.46 163.75,309.41 151.19,297.34C138.63,285.28 124.74,273.13 116.06,256.56C107.38,239.98 99.82,217.12 99.11,197.91C98.39,178.69 103.89,158.46 111.77,141.28C119.64,124.1 132.7,109.84 146.35,94.81C159.99,79.78 175.38,59.07 193.62,51.09C211.85,43.11 235.63,45.39 255.77,46.93C275.91,48.47 297.31,52.79 314.45,60.33C331.6,67.87 347.06,78.99 358.62,92.17C370.18,105.34 376.22,122.85 383.83,139.39C391.45,155.92 403.22,173.2 404.32,191.39Z" fill="#E8232B" stroke="#0B0B0B" stroke-width="12" stroke-linejoin="round" stroke-linecap="round"/>
<path d="M409.38,228.81C410.58,245.37 405.05,265.44 397.77,280C390.49,294.56 379.24,305.58 365.71,316.17C352.19,326.76 333.63,340.19 316.62,343.56C299.61,346.93 279.85,340.65 263.66,336.4C247.47,332.15 233.07,327.34 219.47,318.06C205.87,308.78 189.88,295.76 182.08,280.72C174.28,265.68 172.48,245.8 172.69,227.84C172.91,209.88 175.44,187.54 183.37,172.97C191.31,158.41 206.19,150.94 220.31,140.45C234.42,129.96 251.17,115.39 268.08,110.02C284.99,104.65 305.11,104.45 321.75,108.25C338.4,112.05 356.47,120.75 367.94,132.81C379.4,144.88 383.66,164.64 390.56,180.64C397.47,196.64 408.18,212.25 409.38,228.81Z" fill="#FFF6C8" stroke="#0B0B0B" stroke-width="12" stroke-linejoin="round" stroke-linecap="round"/>
<path d="M231.59,55.68C220.56,48.87 184.66,51.18 166.7,59.29C148.74,67.41 133.61,88.06 123.86,104.35C114.11,120.65 111.92,138.52 108.22,157.07C104.52,175.63 101.67,198.33 101.66,215.66C101.64,232.99 108.96,242.14 108.13,261.04C107.3,279.94 99.1,317.13 96.68,329.04C94.25,340.95 88.99,339.28 93.58,332.5C98.17,325.71 116.18,284.86 124.24,288.33C132.3,291.79 139.32,342.3 141.94,353.31C144.56,364.32 136.54,364.64 139.93,354.39C143.33,344.13 155.69,292.69 162.3,291.79C168.91,290.9 176,339.25 179.59,349.01C183.18,358.78 180.61,360.47 183.83,350.39C187.04,340.31 194.18,293.43 198.89,288.53C203.61,283.64 209.7,315.61 212.1,321C214.5,326.38 211.84,330.78 213.29,320.87C214.74,310.96 220.14,280.27 220.81,261.55C221.49,242.83 218.72,227.24 217.33,208.56C215.94,189.89 209.9,167.58 212.49,149.52C215.08,131.46 229.7,115.83 232.89,100.19C236.07,84.55 242.62,62.5 231.59,55.68Z" fill="#E8232B" stroke="#0B0B0B" stroke-width="12" stroke-linejoin="round" stroke-linecap="round"/>
<path d="M279.19,147.64C280.81,156.48 280.07,166.21 277.29,174.63C274.52,183.06 267.85,192.12 262.54,198.17C257.24,204.23 252.04,207.28 245.46,210.98C238.89,214.69 231.27,220.94 223.11,220.41C214.94,219.87 203.55,212.92 196.49,207.79C189.43,202.66 185.63,196.48 180.74,189.65C175.86,182.82 169.02,174.61 167.18,166.81C165.33,159.02 167.71,151.3 169.68,142.87C171.66,134.44 173.77,123.12 179.04,116.24C184.32,109.37 193.34,104.68 201.34,101.62C209.33,98.56 218.56,96.96 227.01,97.88C235.47,98.8 245.29,103.19 252.05,107.14C258.81,111.09 263.05,114.83 267.58,121.58C272.1,128.33 277.57,138.8 279.19,147.64Z" fill="#FFFFFF" stroke="#0B0B0B" stroke-width="12" stroke-linejoin="round" stroke-linecap="round"/><path d="M406,145.32C405.13,156.17 402.8,167.34 397.87,176.84C392.93,186.35 383.96,196.6 376.37,202.36C368.79,208.13 362.17,210.38 352.34,211.42C342.5,212.46 327.3,211.72 317.39,208.58C307.48,205.45 300.26,199.33 292.87,192.61C285.48,185.9 276.42,178.24 273.05,168.29C269.67,158.34 271.89,143.55 272.6,132.9C273.32,122.25 272.13,113.31 277.35,104.39C282.56,95.48 295.2,86.02 303.88,79.41C312.56,72.79 320.12,66.52 329.43,64.68C338.74,62.85 350.19,65.31 359.73,68.38C369.27,71.44 379.43,75.86 386.66,83.1C393.89,90.33 399.86,101.39 403.09,111.76C406.31,122.13 406.87,134.47 406,145.32Z" fill="#FFFFFF" stroke="#0B0B0B" stroke-width="12" stroke-linejoin="round" stroke-linecap="round"/><path d="M208.39,164.2C208.26,168.13 206.94,172.12 205.57,175.65C204.2,179.18 202.53,183.31 200.19,185.39C197.85,187.48 194.33,188.37 191.52,188.17C188.71,187.97 185.88,186.12 183.35,184.19C180.81,182.26 177.9,179.92 176.32,176.59C174.74,173.26 173.86,168.32 173.87,164.2C173.88,160.08 174.79,155.17 176.38,151.86C177.97,148.55 180.87,146.15 183.4,144.34C185.92,142.52 188.69,141.26 191.52,140.97C194.35,140.67 197.89,140.71 200.37,142.56C202.84,144.42 205.03,148.49 206.37,152.1C207.7,155.71 208.53,160.27 208.39,164.2Z" fill="#0B0B0B"/><path d="M317.43,147.4C317.3,151.33 315.98,155.32 314.61,158.85C313.24,162.38 311.57,166.51 309.23,168.59C306.89,170.68 303.37,171.57 300.56,171.37C297.75,171.17 294.92,169.32 292.39,167.39C289.85,165.46 286.94,163.12 285.36,159.79C283.78,156.46 282.9,151.52 282.91,147.4C282.92,143.28 283.83,138.37 285.42,135.06C287.01,131.75 289.91,129.35 292.44,127.54C294.96,125.72 297.73,124.46 300.56,124.17C303.39,123.87 306.93,123.91 309.41,125.76C311.88,127.62 314.07,131.69 315.41,135.3C316.74,138.91 317.57,143.47 317.43,147.4Z" fill="#0B0B0B"/><path d="M162.45,158.08C147.75,148.88 179.49,92.39 194.67,79.65C209.86,66.9 238.86,72.4 253.56,81.6C268.25,90.8 298.02,122.09 282.83,134.84C267.65,147.58 177.14,167.27 162.45,158.08Z" fill="#FFF6C8" stroke="#0B0B0B" stroke-width="12" stroke-linejoin="round" stroke-linecap="round"/><path d="M269.59,137.77C252.53,126.19 291.65,61.86 308.84,47.09C326.04,32.33 355.68,37.59 372.74,49.17C389.8,60.76 428.41,101.83 411.22,116.59C394.02,131.36 286.65,149.35 269.59,137.77Z" fill="#FFF6C8" stroke="#0B0B0B" stroke-width="12" stroke-linejoin="round" stroke-linecap="round"/>
<path d="M299.68,216.24L333.24,231.49L297.37,238.33Z" fill="#0B0B0B"/>
<path d="M252,280C258.67,282 278.67,294 292,292C305.33,290 325.33,272 332,268" fill="none" stroke="#0B0B0B" stroke-width="12" stroke-linejoin="round" stroke-linecap="round"/>
<path d="M197.58,327.96L318.63,373.07L311.94,393.95L188.17,355.06Z" fill="#E8232B" stroke="#0B0B0B" stroke-width="12" stroke-linejoin="round" stroke-linecap="round"/><path d="M195.48,374.33L318.94,328.15L324.29,351.38L198.36,393.73Z" fill="#E8232B" stroke="#0B0B0B" stroke-width="12" stroke-linejoin="round" stroke-linecap="round"/><path d="M350.52,339.23C350.65,342.73 346.38,347.59 343.62,351.67C340.86,355.76 338.51,362.4 333.97,363.73C329.42,365.06 321.73,361.08 316.37,359.64C311.01,358.2 305.24,358.44 301.82,355.08C298.39,351.72 295.61,343.99 295.81,339.5C296.01,335.01 299.41,331.03 303,328.16C306.58,325.29 312.72,323.07 317.31,322.27C321.9,321.47 326.29,321.94 330.55,323.34C334.8,324.74 339.51,328.01 342.84,330.66C346.17,333.31 350.39,335.73 350.52,339.23Z" fill="#E8232B" stroke="#0B0B0B" stroke-width="12" stroke-linejoin="round" stroke-linecap="round"/><path d="M214.39,343C214.03,346.08 209.63,350.09 206.25,353.55C202.87,357.02 198.75,361.85 194.1,363.78C189.44,365.72 182.63,366.2 178.32,365.17C174.01,364.13 170.34,361.23 168.21,357.57C166.09,353.91 165.3,347.08 165.57,343.21C165.84,339.35 167.34,337.36 169.81,334.4C172.27,331.43 176.18,326.93 180.35,325.4C184.52,323.88 190.14,323.64 194.82,325.25C199.5,326.86 205.16,332.12 208.42,335.08C211.68,338.04 214.76,339.92 214.39,343Z" fill="#E8232B" stroke="#0B0B0B" stroke-width="12" stroke-linejoin="round" stroke-linecap="round"/></g><path d="M70.8,94.3L69.8,244.5" fill="none" stroke="#0B0B0B" stroke-width="61.050000000000004" stroke-linejoin="round" stroke-linecap="round"/><path d="M178.7,95.4L69.0,169.5" fill="none" stroke="#0B0B0B" stroke-width="61.050000000000004" stroke-linejoin="round" stroke-linecap="round"/><path d="M108.2,149.5L176.1,246.4" fill="none" stroke="#0B0B0B" stroke-width="61.050000000000004" stroke-linejoin="round" stroke-linecap="round"/><path d="M321.2,94.7L214.5,95.6L213.0,244.3L322.3,246.0" fill="none" stroke="#0B0B0B" stroke-width="61.050000000000004" stroke-linejoin="round" stroke-linecap="round"/><path d="M214.2,169.9L288.7,169.8" fill="none" stroke="#0B0B0B" stroke-width="61.050000000000004" stroke-linejoin="round" stroke-linecap="round"/><path d="M356.1,94.7L410.0,245.1L463.9,95.4" fill="none" stroke="#0B0B0B" stroke-width="61.050000000000004" stroke-linejoin="round" stroke-linecap="round"/><path d="M554.6,95.8L555.6,246.6" fill="none" stroke="#0B0B0B" stroke-width="61.050000000000004" stroke-linejoin="round" stroke-linecap="round"/><path d="M523.9,95.2L586.5,94.4" fill="none" stroke="#0B0B0B" stroke-width="61.050000000000004" stroke-linejoin="round" stroke-linecap="round"/><path d="M523.4,244.8L584.9,247.1" fill="none" stroke="#0B0B0B" stroke-width="61.050000000000004" stroke-linejoin="round" stroke-linecap="round"/><path d="M644.1,247.3L645.0,96.9L749.9,245.0L751.4,95.4" fill="none" stroke="#0B0B0B" stroke-width="61.050000000000004" stroke-linejoin="round" stroke-linecap="round"/><path d="M70.8,94.3L69.8,244.5" fill="none" stroke="#E8232B" stroke-width="33" stroke-linejoin="round" stroke-linecap="round"/><path d="M178.7,95.4L69.0,169.5" fill="none" stroke="#E8232B" stroke-width="33" stroke-linejoin="round" stroke-linecap="round"/><path d="M108.2,149.5L176.1,246.4" fill="none" stroke="#E8232B" stroke-width="33" stroke-linejoin="round" stroke-linecap="round"/><path d="M321.2,94.7L214.5,95.6L213.0,244.3L322.3,246.0" fill="none" stroke="#E8232B" stroke-width="33" stroke-linejoin="round" stroke-linecap="round"/><path d="M214.2,169.9L288.7,169.8" fill="none" stroke="#E8232B" stroke-width="33" stroke-linejoin="round" stroke-linecap="round"/><path d="M356.1,94.7L410.0,245.1L463.9,95.4" fill="none" stroke="#E8232B" stroke-width="33" stroke-linejoin="round" stroke-linecap="round"/><path d="M554.6,95.8L555.6,246.6" fill="none" stroke="#E8232B" stroke-width="33" stroke-linejoin="round" stroke-linecap="round"/><path d="M523.9,95.2L586.5,94.4" fill="none" stroke="#E8232B" stroke-width="33" stroke-linejoin="round" stroke-linecap="round"/><path d="M523.4,244.8L584.9,247.1" fill="none" stroke="#E8232B" stroke-width="33" stroke-linejoin="round" stroke-linecap="round"/><path d="M644.1,247.3L645.0,96.9L749.9,245.0L751.4,95.4" fill="none" stroke="#E8232B" stroke-width="33" stroke-linejoin="round" stroke-linecap="round"/><path d="M74.0,285.2L121.4,285.5" fill="none" stroke="#0B0B0B" stroke-width="26.862000000000002" stroke-linejoin="round" stroke-linecap="round"/><path d="M96.8,285.3L98.3,352.3" fill="none" stroke="#0B0B0B" stroke-width="26.862000000000002" stroke-linejoin="round" stroke-linecap="round"/><path d="M160.0,285.7L137.1,305.3L137.9,332.9L161.0,352.0L184.4,333.7L183.7,304.8L160.9,285.8" fill="none" stroke="#0B0B0B" stroke-width="26.862000000000002" stroke-linejoin="round" stroke-linecap="round"/><path d="M200.2,286.5L200.0,352.6L247.6,351.9" fill="none" stroke="#0B0B0B" stroke-width="26.862000000000002" stroke-linejoin="round" stroke-linecap="round"/><path d="M262.8,286.7L264.0,351.8L291.7,352.0L309.9,333.5L310.8,305.3L292.0,286.7L263.3,285.4" fill="none" stroke="#0B0B0B" stroke-width="26.862000000000002" stroke-linejoin="round" stroke-linecap="round"/><path d="M390.3,351.5L390.0,286.3L437.0,351.5L436.5,286.3" fill="none" stroke="#0B0B0B" stroke-width="26.862000000000002" stroke-linejoin="round" stroke-linecap="round"/><path d="M476.5,286.1L453.6,305.0L453.5,332.4L476.6,351.7L500.4,332.9L500.5,305.6L477.0,286.1" fill="none" stroke="#0B0B0B" stroke-width="26.862000000000002" stroke-linejoin="round" stroke-linecap="round"/><path d="M539.9,346.8L540.3,352.1" fill="none" stroke="#0B0B0B" stroke-width="26.862000000000002" stroke-linejoin="round" stroke-linecap="round"/><path d="M74.0,285.2L121.4,285.5" fill="none" stroke="#FFFFFF" stroke-width="14.52" stroke-linejoin="round" stroke-linecap="round"/><path d="M96.8,285.3L98.3,352.3" fill="none" stroke="#FFFFFF" stroke-width="14.52" stroke-linejoin="round" stroke-linecap="round"/><path d="M160.0,285.7L137.1,305.3L137.9,332.9L161.0,352.0L184.4,333.7L183.7,304.8L160.9,285.8" fill="none" stroke="#FFFFFF" stroke-width="14.52" stroke-linejoin="round" stroke-linecap="round"/><path d="M200.2,286.5L200.0,352.6L247.6,351.9" fill="none" stroke="#FFFFFF" stroke-width="14.52" stroke-linejoin="round" stroke-linecap="round"/><path d="M262.8,286.7L264.0,351.8L291.7,352.0L309.9,333.5L310.8,305.3L292.0,286.7L263.3,285.4" fill="none" stroke="#FFFFFF" stroke-width="14.52" stroke-linejoin="round" stroke-linecap="round"/><path d="M390.3,351.5L390.0,286.3L437.0,351.5L436.5,286.3" fill="none" stroke="#FFFFFF" stroke-width="14.52" stroke-linejoin="round" stroke-linecap="round"/><path d="M476.5,286.1L453.6,305.0L453.5,332.4L476.6,351.7L500.4,332.9L500.5,305.6L477.0,286.1" fill="none" stroke="#FFFFFF" stroke-width="14.52" stroke-linejoin="round" stroke-linecap="round"/><path d="M539.9,346.8L540.3,352.1" fill="none" stroke="#FFFFFF" stroke-width="14.52" stroke-linejoin="round" stroke-linecap="round"/><path d="M106.0,392.0L90.8,386.2L74.0,395.7L80.5,408.5L100.1,409.1L106.3,421.5L90.6,431.6L73.7,424.9" fill="none" stroke="#0B0B0B" stroke-width="18.560260586319217" stroke-linejoin="round" stroke-linecap="round"/><path d="M117.9,385.9L150.3,385.8" fill="none" stroke="#0B0B0B" stroke-width="18.560260586319217" stroke-linejoin="round" stroke-linecap="round"/><path d="M133.9,385.9L133.7,431.5" fill="none" stroke="#0B0B0B" stroke-width="18.560260586319217" stroke-linejoin="round" stroke-linecap="round"/><path d="M161.4,431.9L177.7,385.5L193.8,432.0" fill="none" stroke="#0B0B0B" stroke-width="18.560260586319217" stroke-linejoin="round" stroke-linecap="round"/><path d="M167.9,415.7L186.9,415.2" fill="none" stroke="#0B0B0B" stroke-width="18.560260586319217" stroke-linejoin="round" stroke-linecap="round"/><path d="M204.5,386.5L221.2,409.1L237.2,385.8" fill="none" stroke="#0B0B0B" stroke-width="18.560260586319217" stroke-linejoin="round" stroke-linecap="round"/><path d="M221.4,408.4L221.2,431.7" fill="none" stroke="#0B0B0B" stroke-width="18.560260586319217" stroke-linejoin="round" stroke-linecap="round"/><path d="M281.1,386.1L248.3,385.6L248.2,431.8L280.9,431.4" fill="none" stroke="#0B0B0B" stroke-width="18.560260586319217" stroke-linejoin="round" stroke-linecap="round"/><path d="M248.4,408.5L271.1,408.9" fill="none" stroke="#0B0B0B" stroke-width="18.560260586319217" stroke-linejoin="round" stroke-linecap="round"/><path d="M291.9,385.6L292.0,431.2L311.3,431.4L325.2,419.0L325.2,398.8L311.9,385.7L291.8,386.2" fill="none" stroke="#0B0B0B" stroke-width="18.560260586319217" stroke-linejoin="round" stroke-linecap="round"/><path d="M379.5,431.1L395.6,385.6L411.7,431.6" fill="none" stroke="#0B0B0B" stroke-width="18.560260586319217" stroke-linejoin="round" stroke-linecap="round"/><path d="M385.8,415.6L405.6,415.5" fill="none" stroke="#0B0B0B" stroke-width="18.560260586319217" stroke-linejoin="round" stroke-linecap="round"/><path d="M423.7,431.9L422.7,386.0L456.3,431.9L455.7,385.9" fill="none" stroke="#0B0B0B" stroke-width="18.560260586319217" stroke-linejoin="round" stroke-linecap="round"/><path d="M467.1,385.7L483.0,409.0L499.4,385.8" fill="none" stroke="#0B0B0B" stroke-width="18.560260586319217" stroke-linejoin="round" stroke-linecap="round"/><path d="M483.5,409.2L483.1,431.2" fill="none" stroke="#0B0B0B" stroke-width="18.560260586319217" stroke-linejoin="round" stroke-linecap="round"/><path d="M510.7,385.8L518.2,431.2L526.9,402.0L534.9,431.6L543.0,385.6" fill="none" stroke="#0B0B0B" stroke-width="18.560260586319217" stroke-linejoin="round" stroke-linecap="round"/><path d="M554.4,431.4L570.9,386.3L586.5,431.4" fill="none" stroke="#0B0B0B" stroke-width="18.560260586319217" stroke-linejoin="round" stroke-linecap="round"/><path d="M560.4,414.9L579.9,415.2" fill="none" stroke="#0B0B0B" stroke-width="18.560260586319217" stroke-linejoin="round" stroke-linecap="round"/><path d="M597.8,386.3L613.9,409.0L630.0,385.9" fill="none" stroke="#0B0B0B" stroke-width="18.560260586319217" stroke-linejoin="round" stroke-linecap="round"/><path d="M613.8,409.3L613.9,431.7" fill="none" stroke="#0B0B0B" stroke-width="18.560260586319217" stroke-linejoin="round" stroke-linecap="round"/><path d="M657.3,428.6L657.3,431.1" fill="none" stroke="#0B0B0B" stroke-width="18.560260586319217" stroke-linejoin="round" stroke-linecap="round"/><path d="M106.0,392.0L90.8,386.2L74.0,395.7L80.5,408.5L100.1,409.1L106.3,421.5L90.6,431.6L73.7,424.9" fill="none" stroke="#FFFFFF" stroke-width="10.03257328990228" stroke-linejoin="round" stroke-linecap="round"/><path d="M117.9,385.9L150.3,385.8" fill="none" stroke="#FFFFFF" stroke-width="10.03257328990228" stroke-linejoin="round" stroke-linecap="round"/><path d="M133.9,385.9L133.7,431.5" fill="none" stroke="#FFFFFF" stroke-width="10.03257328990228" stroke-linejoin="round" stroke-linecap="round"/><path d="M161.4,431.9L177.7,385.5L193.8,432.0" fill="none" stroke="#FFFFFF" stroke-width="10.03257328990228" stroke-linejoin="round" stroke-linecap="round"/><path d="M167.9,415.7L186.9,415.2" fill="none" stroke="#FFFFFF" stroke-width="10.03257328990228" stroke-linejoin="round" stroke-linecap="round"/><path d="M204.5,386.5L221.2,409.1L237.2,385.8" fill="none" stroke="#FFFFFF" stroke-width="10.03257328990228" stroke-linejoin="round" stroke-linecap="round"/><path d="M221.4,408.4L221.2,431.7" fill="none" stroke="#FFFFFF" stroke-width="10.03257328990228" stroke-linejoin="round" stroke-linecap="round"/><path d="M281.1,386.1L248.3,385.6L248.2,431.8L280.9,431.4" fill="none" stroke="#FFFFFF" stroke-width="10.03257328990228" stroke-linejoin="round" stroke-linecap="round"/><path d="M248.4,408.5L271.1,408.9" fill="none" stroke="#FFFFFF" stroke-width="10.03257328990228" stroke-linejoin="round" stroke-linecap="round"/><path d="M291.9,385.6L292.0,431.2L311.3,431.4L325.2,419.0L325.2,398.8L311.9,385.7L291.8,386.2" fill="none" stroke="#FFFFFF" stroke-width="10.03257328990228" stroke-linejoin="round" stroke-linecap="round"/><path d="M379.5,431.1L395.6,385.6L411.7,431.6" fill="none" stroke="#FFFFFF" stroke-width="10.03257328990228" stroke-linejoin="round" stroke-linecap="round"/><path d="M385.8,415.6L405.6,415.5" fill="none" stroke="#FFFFFF" stroke-width="10.03257328990228" stroke-linejoin="round" stroke-linecap="round"/><path d="M423.7,431.9L422.7,386.0L456.3,431.9L455.7,385.9" fill="none" stroke="#FFFFFF" stroke-width="10.03257328990228" stroke-linejoin="round" stroke-linecap="round"/><path d="M467.1,385.7L483.0,409.0L499.4,385.8" fill="none" stroke="#FFFFFF" stroke-width="10.03257328990228" stroke-linejoin="round" stroke-linecap="round"/><path d="M483.5,409.2L483.1,431.2" fill="none" stroke="#FFFFFF" stroke-width="10.03257328990228" stroke-linejoin="round" stroke-linecap="round"/><path d="M510.7,385.8L518.2,431.2L526.9,402.0L534.9,431.6L543.0,385.6" fill="none" stroke="#FFFFFF" stroke-width="10.03257328990228" stroke-linejoin="round" stroke-linecap="round"/><path d="M554.4,431.4L570.9,386.3L586.5,431.4" fill="none" stroke="#FFFFFF" stroke-width="10.03257328990228" stroke-linejoin="round" stroke-linecap="round"/><path d="M560.4,414.9L579.9,415.2" fill="none" stroke="#FFFFFF" stroke-width="10.03257328990228" stroke-linejoin="round" stroke-linecap="round"/><path d="M597.8,386.3L613.9,409.0L630.0,385.9" fill="none" stroke="#FFFFFF" stroke-width="10.03257328990228" stroke-linejoin="round" stroke-linecap="round"/><path d="M613.8,409.3L613.9,431.7" fill="none" stroke="#FFFFFF" stroke-width="10.03257328990228" stroke-linejoin="round" stroke-linecap="round"/><path d="M657.3,428.6L657.3,431.1" fill="none" stroke="#FFFFFF" stroke-width="10.03257328990228" stroke-linejoin="round" stroke-linecap="round"/><path d="M73.7,512.3L73.7,552.3" fill="none" stroke="#0B0B0B" stroke-width="11.840000000000002" stroke-linejoin="round" stroke-linecap="round"/><path d="M102.6,512.4L74.2,532.3" fill="none" stroke="#0B0B0B" stroke-width="11.840000000000002" stroke-linejoin="round" stroke-linecap="round"/><path d="M84.0,526.0L102.7,552.1" fill="none" stroke="#0B0B0B" stroke-width="11.840000000000002" stroke-linejoin="round" stroke-linecap="round"/><path d="M141.0,511.7L112.0,511.7L112.2,552.4L140.8,552.2" fill="none" stroke="#0B0B0B" stroke-width="11.840000000000002" stroke-linejoin="round" stroke-linecap="round"/><path d="M111.9,531.6L132.4,531.8" fill="none" stroke="#0B0B0B" stroke-width="11.840000000000002" stroke-linejoin="round" stroke-linecap="round"/><path d="M150.1,512.0L150.8,552.4" fill="none" stroke="#0B0B0B" stroke-width="11.840000000000002" stroke-linejoin="round" stroke-linecap="round"/><path d="M179.6,512.4L150.3,531.7" fill="none" stroke="#0B0B0B" stroke-width="11.840000000000002" stroke-linejoin="round" stroke-linecap="round"/><path d="M160.6,526.5L178.7,552.2" fill="none" stroke="#0B0B0B" stroke-width="11.840000000000002" stroke-linejoin="round" stroke-linecap="round"/><path d="M217.8,512.0L188.6,511.6L188.8,552.3" fill="none" stroke="#0B0B0B" stroke-width="11.840000000000002" stroke-linejoin="round" stroke-linecap="round"/><path d="M188.7,532.1L209.1,531.6" fill="none" stroke="#0B0B0B" stroke-width="11.840000000000002" stroke-linejoin="round" stroke-linecap="round"/><path d="M227.2,512.2L227.5,540.8L241.0,551.7L255.8,540.5L255.6,512.0" fill="none" stroke="#0B0B0B" stroke-width="11.840000000000002" stroke-linejoin="round" stroke-linecap="round"/><path d="M265.1,552.2L265.9,512.0L294.1,551.8L294.4,511.6" fill="none" stroke="#0B0B0B" stroke-width="11.840000000000002" stroke-linejoin="round" stroke-linecap="round"/><path d="M317.6,549.0L317.9,552.2" fill="none" stroke="#0B0B0B" stroke-width="11.840000000000002" stroke-linejoin="round" stroke-linecap="round"/><path d="M341.7,511.8L370.6,552.4" fill="none" stroke="#0B0B0B" stroke-width="11.840000000000002" stroke-linejoin="round" stroke-linecap="round"/><path d="M370.2,512.3L342.0,552.1" fill="none" stroke="#0B0B0B" stroke-width="11.840000000000002" stroke-linejoin="round" stroke-linecap="round"/><path d="M380.5,512.2L394.5,531.8L408.8,511.6" fill="none" stroke="#0B0B0B" stroke-width="11.840000000000002" stroke-linejoin="round" stroke-linecap="round"/><path d="M394.5,532.0L394.8,552.3" fill="none" stroke="#0B0B0B" stroke-width="11.840000000000002" stroke-linejoin="round" stroke-linecap="round"/><path d="M418.6,512.3L447.0,511.5L418.5,552.2L447.3,552.4" fill="none" stroke="#0B0B0B" stroke-width="11.840000000000002" stroke-linejoin="round" stroke-linecap="round"/><path d="M73.7,512.3L73.7,552.3" fill="none" stroke="#0B0B0B" stroke-width="6.4" stroke-linejoin="round" stroke-linecap="round"/><path d="M102.6,512.4L74.2,532.3" fill="none" stroke="#0B0B0B" stroke-width="6.4" stroke-linejoin="round" stroke-linecap="round"/><path d="M84.0,526.0L102.7,552.1" fill="none" stroke="#0B0B0B" stroke-width="6.4" stroke-linejoin="round" stroke-linecap="round"/><path d="M141.0,511.7L112.0,511.7L112.2,552.4L140.8,552.2" fill="none" stroke="#0B0B0B" stroke-width="6.4" stroke-linejoin="round" stroke-linecap="round"/><path d="M111.9,531.6L132.4,531.8" fill="none" stroke="#0B0B0B" stroke-width="6.4" stroke-linejoin="round" stroke-linecap="round"/><path d="M150.1,512.0L150.8,552.4" fill="none" stroke="#0B0B0B" stroke-width="6.4" stroke-linejoin="round" stroke-linecap="round"/><path d="M179.6,512.4L150.3,531.7" fill="none" stroke="#0B0B0B" stroke-width="6.4" stroke-linejoin="round" stroke-linecap="round"/><path d="M160.6,526.5L178.7,552.2" fill="none" stroke="#0B0B0B" stroke-width="6.4" stroke-linejoin="round" stroke-linecap="round"/><path d="M217.8,512.0L188.6,511.6L188.8,552.3" fill="none" stroke="#0B0B0B" stroke-width="6.4" stroke-linejoin="round" stroke-linecap="round"/><path d="M188.7,532.1L209.1,531.6" fill="none" stroke="#0B0B0B" stroke-width="6.4" stroke-linejoin="round" stroke-linecap="round"/><path d="M227.2,512.2L227.5,540.8L241.0,551.7L255.8,540.5L255.6,512.0" fill="none" stroke="#0B0B0B" stroke-width="6.4" stroke-linejoin="round" stroke-linecap="round"/><path d="M265.1,552.2L265.9,512.0L294.1,551.8L294.4,511.6" fill="none" stroke="#0B0B0B" stroke-width="6.4" stroke-linejoin="round" stroke-linecap="round"/><path d="M317.6,549.0L317.9,552.2" fill="none" stroke="#0B0B0B" stroke-width="6.4" stroke-linejoin="round" stroke-linecap="round"/><path d="M341.7,511.8L370.6,552.4" fill="none" stroke="#0B0B0B" stroke-width="6.4" stroke-linejoin="round" stroke-linecap="round"/><path d="M370.2,512.3L342.0,552.1" fill="none" stroke="#0B0B0B" stroke-width="6.4" stroke-linejoin="round" stroke-linecap="round"/><path d="M380.5,512.2L394.5,531.8L408.8,511.6" fill="none" stroke="#0B0B0B" stroke-width="6.4" stroke-linejoin="round" stroke-linecap="round"/><path d="M394.5,532.0L394.8,552.3" fill="none" stroke="#0B0B0B" stroke-width="6.4" stroke-linejoin="round" stroke-linecap="round"/><path d="M418.6,512.3L447.0,511.5L418.5,552.2L447.3,552.4" fill="none" stroke="#0B0B0B" stroke-width="6.4" stroke-linejoin="round" stroke-linecap="round"/></svg>